<?xml version="1.0" encoding="UTF-8"?>
<svg id="Camada_2" data-name="Camada 2" xmlns="http://www.w3.org/2000/svg" xmlns:xlink="http://www.w3.org/1999/xlink" viewBox="0 0 1180.05 1379.78">
  <defs>
    <style>
      .cls-1 {
        stroke: #1a1a1a;
        stroke-miterlimit: 10;
        stroke-width: 15px;
      }

      .cls-1, .cls-2, .cls-3 {
        fill: #1a1a1a;
      }

      .cls-4 {
        fill: #750014;
      }

      .cls-5 {
        fill: #cc001a;
      }

      .cls-6 {
        fill: #9e001a;
      }

      .cls-7 {
        fill: url(#Gradiente_sem_nome_19);
      }

      .cls-8 {
        fill: #c3001f;
      }

      .cls-3 {
        font-family: FuturaBT-Light, 'Futura Lt BT';
        font-size: 108.92px;
        letter-spacing: .15em;
      }
    </style>
    <linearGradient id="Gradiente_sem_nome_19" data-name="Gradiente sem nome 19" x1="0" y1="462.69" x2="943.63" y2="462.69" gradientUnits="userSpaceOnUse">
      <stop offset="0" stop-color="#333"/>
      <stop offset="1" stop-color="#1a1a1a" stop-opacity="0"/>
    </linearGradient>
    <symbol id="Logo" viewBox="0 0 943.63 1103.34">
      <g>
        <text class="cls-3" transform="translate(15.73 1077.65)"><tspan x="0" y="0">SOCIAL MEDIA</tspan></text>
        <polyline class="cls-7" points="565.55 12.66 943.63 912.71 0 812.88"/>
        <g>
          <line class="cls-1" x1="186.39" y1="254.95" x2="446.43" y2="633.01"/>
          <polygon class="cls-2" points="192.63 926.03 85.06 926.03 85.06 92.63 192.63 250.33 192.63 926.03"/>
          <line class="cls-1" x1="704.01" y1="264.69" x2="442.21" y2="635.03"/>
          <polygon class="cls-2" points="604.11 413.25 710.11 239.88 721.08 763.11 613.51 926.03 604.11 413.25"/>
          <polygon class="cls-2" points="454.76 630.48 445.36 646.14 433.88 628.39 444.82 616.98 454.76 630.48"/>
          <polyline class="cls-6" points="358.79 623.46 245.52 799 219.26 411.16"/>
          <polyline class="cls-8" points="426.04 55.03 426.04 501.12 155.55 128.64"/>
          <polyline class="cls-6" points="513.3 100.81 454.81 249.33 454.81 0"/>
          <polyline class="cls-4" points="746.66 751.62 746.66 316.12 847.97 605.41"/>
          <polyline class="cls-5" points="540.81 787 596.35 923.9 590.83 650.59"/>
        </g>
      </g>
    </symbol>
  </defs>
  <g id="Camada_1-2" data-name="Camada 1">
    <use width="943.63" height="1103.34" transform="scale(1.25)" xlink:href="#Logo"/>
  </g>
</svg>